<?xml version="1.0" encoding="UTF-8" standalone="no"?>
<!-- Created with Inkscape (http://www.inkscape.org/) -->

<svg
   xmlns:dc="http://purl.org/dc/elements/1.1/"
   xmlns:cc="http://creativecommons.org/ns#"
   xmlns:rdf="http://www.w3.org/1999/02/22-rdf-syntax-ns#"
   xmlns:svg="http://www.w3.org/2000/svg"
   xmlns="http://www.w3.org/2000/svg"
   xmlns:sodipodi="http://sodipodi.sourceforge.net/DTD/sodipodi-0.dtd"
   xmlns:inkscape="http://www.inkscape.org/namespaces/inkscape"
   id="svg6533"
   sodipodi:docname="axe.svg"
   viewBox="0 0 302.61267 302.85666"
   sodipodi:version="0.32"
   version="1.0"
   inkscape:output_extension="org.inkscape.output.svg.inkscape"
   inkscape:version="0.48.4 r9939"
   width="100%"
   height="100%">
  <defs
     id="defs7" />
  <sodipodi:namedview
     id="base"
     bordercolor="#666666"
     inkscape:pageshadow="2"
     guidetolerance="10.0"
     pagecolor="#ffffff"
     gridtolerance="10.0"
     inkscape:window-maximized="0"
     inkscape:zoom="0.5"
     objecttolerance="10.0"
     borderopacity="1.0"
     inkscape:current-layer="layer1"
     inkscape:cx="211.83683"
     inkscape:cy="26.576248"
     inkscape:window-y="319"
     inkscape:window-x="583"
     inkscape:window-height="758"
     showgrid="false"
     inkscape:pageopacity="0.0"
     inkscape:window-width="1205"
     fit-margin-top="0"
     fit-margin-left="0"
     fit-margin-right="0"
     fit-margin-bottom="0" />
  <g
     id="layer1"
     transform="translate(-331.44608,-417.00928)">
    <path
       sodipodi:type="arc"
       style="fill:#f49500;fill-opacity:1;stroke:none"
       id="path5318"
       sodipodi:cx="510.22083"
       sodipodi:cy="213.46526"
       sodipodi:rx="181.923"
       sodipodi:ry="181.923"
       d="m 692.14383,213.46526 c 0,100.4733 -81.4497,181.923 -181.923,181.923 -100.47331,0 -181.92301,-81.4497 -181.92301,-181.923 0,-100.47331 81.4497,-181.923008 181.92301,-181.923008 100.4733,0 181.923,81.449698 181.923,181.923008 z"
       transform="matrix(0.82452461,0,0,0.82452461,62.040349,392.39662)" />
    <path
       style="fill:none;stroke:#985d00;stroke-width:10;stroke-miterlimit:4;stroke-opacity:1;stroke-dasharray:none"
       d="m 478.5625,422.09375 c -53.73615,0.86091 -105.21758,34.6104 -127.94185,83.11584 -23.62604,48.72181 -17.45181,110.51226 16.5356,153.00916 30.11593,39.16486 80.615,61.23302 129.96875,55.84375 50.4906,-4.5791 97.38335,-37.5453 118.33068,-83.93671 21.87049,-46.2493 17.20216,-103.91288 -12.79943,-145.56329 -27.68322,-40.07666 -75.3186,-64.16964 -124.09375,-62.46875 z"
       id="path5322"
       inkscape:connector-curvature="0" />
    <path
       inkscape:connector-curvature="0"
       d="m 573.30825,482.44713 0.75826,0.75826 c 0.93233,1.18369 1.49019,2.68748 1.37556,4.20485 -0.19528,2.68149 -2.14824,5.14053 -4.72533,5.92258 -1.35266,0.43562 -2.80975,0.27259 -4.15898,-0.0832 -0.54853,-0.15284 -1.14969,-0.26154 -1.6974,-0.0416 -0.66654,0.21312 -0.94589,0.91195 -1.33056,1.43245 -2.98464,4.32117 -5.96844,8.64316 -8.95223,12.96517 -0.29211,0.43816 -0.81263,0.77524 -1.35435,0.64277 -2.42762,-0.47294 -5.02505,-0.72176 -7.39495,0.15539 -0.90345,0.34134 -1.76444,0.82703 -2.46668,1.497 -24.15656,24.86641 -48.3173,49.72853 -72.47045,74.59834 -0.83806,0.92126 -1.89184,1.7254 -2.32232,2.93878 -0.44325,1.14462 -0.1698,2.43354 0.40416,3.47968 1.04103,1.90881 2.44971,3.66394 4.26428,4.88751 1.72541,1.16668 3.88727,1.65916 5.94637,1.33226 2.60677,-0.40246 4.92149,-1.87146 6.8235,-3.64101 1.17603,-1.09283 3.0636,-1.0461 4.38146,-0.24116 0.84997,0.50522 1.4902,1.35943 1.68975,2.33167 0.26658,1.17691 -0.0425,2.40131 -0.53412,3.47715 -1.10468,2.36308 -2.56942,4.57334 -4.43578,6.40573 -3.10334,3.1122 -7.13087,5.04715 -11.15487,6.68003 -2.40043,0.86523 -4.73721,1.97079 -6.79294,3.49667 -2.72818,1.98775 -4.85184,4.82295 -5.85972,8.05555 -0.26495,0.92216 -0.64023,1.80522 -0.95869,2.70957 -1.53521,4.25238 -2.82585,8.59815 -4.65228,12.74094 -0.9816,2.26208 -2.13723,4.45026 -3.48394,6.517 -1.20151,1.874 -2.62292,3.59261 -4.11057,5.24329 l -2.02853,2.02853 c -0.75318,0.55958 -1.38406,1.27537 -2.17204,1.79164 -1.01895,0.57911 -2.07609,1.09281 -3.14601,1.57345 -3.6546,1.62351 -7.70065,2.62122 -11.71612,2.14147 -3.84393,-0.41693 -7.37541,-2.18396 -10.61227,-4.20482 -0.74295,-0.49167 -1.54451,-0.90436 -2.21449,-1.49955 -2.12363,-1.83496 -4.24217,-3.68009 -6.23929,-5.65344 -0.21313,-0.21314 -0.44489,-0.40592 -0.67578,-0.59959 l -3.47459,-3.47459 c -0.78881,-0.93659 -1.7044,-1.7549 -2.50911,-2.67728 -2.42425,-2.61102 -4.74914,-5.31461 -6.97639,-8.09545 -1.44603,-1.88931 -2.94047,-3.76077 -4.1165,-5.83515 -1.82987,-3.7896 -3.38542,-7.77536 -3.95602,-11.96833 -0.47808,-3.41936 -0.16219,-6.98227 1.16244,-10.18855 0.58502,-1.43753 1.34923,-2.80123 2.24165,-4.07064 0.55618,-0.82789 1.24059,-1.55645 1.84343,-2.3461 l 1.94364,-1.94365 c 1.37812,-1.15904 2.72904,-2.36902 4.27361,-3.30731 6.02957,-3.91528 12.64335,-6.83709 19.37854,-9.30293 2.24934,-0.78205 4.42562,-1.78486 6.44481,-3.04834 4.29484,-2.66283 7.77619,-6.58403 9.95503,-11.14038 0.97058,-2.07615 1.92752,-4.15901 2.98974,-6.18923 2.48199,-4.74743 5.40042,-9.36748 9.38277,-13.0051 2.84112,-2.61695 6.35903,-4.60645 10.20383,-5.22461 1.67022,-0.36766 3.40923,0.52049 4.41797,1.83323 0.55191,0.73026 0.93484,1.75177 0.52472,2.6357 -0.69966,1.41291 -1.78568,2.57875 -2.80375,3.76495 -1.3119,1.45794 -2.60937,2.98807 -3.37778,4.8145 -0.99349,2.35546 -0.91963,5.05481 -0.18087,7.46968 0.68861,2.25273 2.3342,4.15305 4.39502,5.26962 1.1964,0.61561 2.82162,0.67504 3.83886,-0.31841 22.56442,-21.8189 45.12376,-43.64121 67.6831,-65.46352 0.4424,-0.46614 1.01727,-0.85253 1.25246,-1.47493 0.32775,-0.81683 0.16725,-1.71434 -0.0128,-2.54478 -0.22672,-1.01299 0.0934,-2.16526 0.91453,-2.82844 1.09196,-0.88478 2.41828,-1.39255 3.63847,-2.0676 -0.1802,-0.19171 -0.2989,-0.4738 -0.54695,-0.58238 -0.46701,0.0237 -0.92638,0.21483 -1.39678,0.12481 -0.38211,-0.4755 -0.56468,-1.07921 -0.84997,-1.61417 0.47551,-0.82706 1.12254,-1.64899 2.06249,-1.95551 0.52391,-0.15709 1.10048,-0.21909 1.63288,-0.0722 0.5256,0.38125 0.80832,1.00368 1.00363,1.60656 -0.33032,0.36257 -0.65377,0.73023 -0.97391,1.10127 0.18086,0.18086 0.36172,0.36173 0.54344,0.54344 1.13695,-0.60711 2.29853,-1.17091 3.42616,-1.79586 -0.1366,-0.20305 -0.27679,-0.4042 -0.41863,-0.60371 -0.49589,0.0136 -1.00617,0.17403 -1.49444,0.0747 -0.30909,-0.43136 -0.58332,-0.91452 -0.68862,-1.43927 0.1554,-0.50354 0.51794,-0.91194 0.88053,-1.27962 0.7141,-0.72597 1.80609,-0.98245 2.79107,-0.833 0.55361,0.36852 0.82364,1.01725 1.04696,1.61926 -0.31844,0.33546 -0.63688,0.67082 -0.96037,1.00113 0.12482,0.18595 0.25048,0.37107 0.37871,0.55531 1.17773,-0.60542 2.38603,-1.15989 3.53145,-1.82472 -0.10961,-0.16721 -0.21309,-0.33883 -0.34218,-0.49165 -0.50947,-0.0527 -1.01637,0.1197 -1.52758,0.12992 -0.29887,-0.55193 -0.70217,-1.12172 -0.69708,-1.77044 0.66059,-1.25837 2.07438,-2.08793 3.50175,-2.00051 0.17404,-0.006 0.28953,0.13163 0.39908,0.24624 0.35911,0.38303 0.60881,0.84998 0.83215,1.32123 -0.28615,0.37448 -0.60118,0.72513 -0.88648,1.10046 -0.21389,0.21919 0.1163,0.42712 0.21057,0.61814 1.12677,-0.62748 2.30026,-1.17432 3.39985,-1.85105 -0.096,-0.17573 -0.19273,-0.35071 -0.28871,-0.52644 -0.52982,0.0696 -1.05461,0.16812 -1.58612,0.21226 -0.2692,-0.48823 -0.57994,-0.96376 -0.74723,-1.49955 0.10445,-0.40334 0.44579,-0.69712 0.70985,-1.00533 0.75317,-0.83133 1.92666,-1.38153 3.05342,-1.16499 0.48677,0.41499 0.79054,0.996 1.04868,1.57169 -0.34219,0.32695 -0.66909,0.66909 -0.97987,1.02745 0.14084,0.18691 0.28346,0.37206 0.4271,0.55787 1.1234,-0.61393 2.28753,-1.1548 3.38797,-1.8103 -0.10374,-0.15779 -0.20717,-0.31419 -0.31246,-0.47044 -0.50779,0.0866 -1.04783,0.28362 -1.55645,0.10956 -0.41939,-0.38217 -0.58926,-0.9799 -0.66911,-1.52671 0.14012,-0.51881 0.54514,-0.92895 0.89923,-1.32037 0.71156,-0.76252 1.84428,-1.0682 2.84881,-0.82282 0.6105,0.29294 0.91346,0.98345 0.97305,1.62863 -0.35574,0.35752 -0.70966,0.71853 -1.04782,1.09195 0.18851,0.16812 0.36512,0.60798 0.67083,0.38038 1.07157,-0.57229 2.17458,-1.08771 3.22067,-1.70585 -0.096,-0.13671 -0.19278,-0.27253 -0.28869,-0.40929 -0.52562,-0.009 -1.05542,0.12141 -1.57595,0.0357 -0.24624,-0.36682 -0.41694,-0.77862 -0.60795,-1.17519 -0.0696,-0.18509 -0.21487,-0.3965 -0.079,-0.58671 0.24372,-0.49505 0.59016,-0.94338 1.01386,-1.29576 0.68356,-0.56469 1.61501,-0.7608 2.48199,-0.6513 0.24113,0.002 0.34896,0.24034 0.48492,0.39987 0.23179,0.32863 0.47892,0.6555 0.62579,1.03168 -0.1834,0.48228 -0.54598,0.87034 -0.81684,1.30424 0.11633,0.17746 0.23607,0.35151 0.3583,0.52647 0.66062,-0.26662 1.34755,-0.48655 2.06167,-0.53495 1.57342,-0.15541 3.14685,0.41095 4.37298,1.38403 z"
       id="path3033"
       style="fill:#985d00;fill-opacity:1" />
  </g>
  <metadata
     id="metadata8">
    <rdf:RDF>
      <cc:Work>
        <dc:format>image/svg+xml</dc:format>
        <dc:type
           rdf:resource="http://purl.org/dc/dcmitype/StillImage" />
        <cc:license
           rdf:resource="http://creativecommons.org/licenses/publicdomain/" />
        <dc:publisher>
          <cc:Agent
             rdf:about="http://openclipart.org/">
            <dc:title>Openclipart</dc:title>
          </cc:Agent>
        </dc:publisher>
        <dc:title></dc:title>
      </cc:Work>
      <cc:License
         rdf:about="http://creativecommons.org/licenses/publicdomain/">
        <cc:permits
           rdf:resource="http://creativecommons.org/ns#Reproduction" />
        <cc:permits
           rdf:resource="http://creativecommons.org/ns#Distribution" />
        <cc:permits
           rdf:resource="http://creativecommons.org/ns#DerivativeWorks" />
      </cc:License>
    </rdf:RDF>
  </metadata>
</svg>
